<mxfile host="app.diagrams.net" agent="Mozilla/5.0 (Windows NT 10.0; Win64; x64) AppleWebKit/537.36 (KHTML, like Gecko) Chrome/129.0.0.0 Safari/537.36" version="24.7.17">
  <diagram name="Página-1" id="a-3j7Tq_ZOjJHrxQyvU_">
    <mxGraphModel dx="1434" dy="1915" grid="1" gridSize="10" guides="1" tooltips="1" connect="1" arrows="1" fold="1" page="1" pageScale="1" pageWidth="827" pageHeight="1169" math="0" shadow="0">
      <root>
        <mxCell id="0" />
        <mxCell id="1" parent="0" />
        <mxCell id="9uag4DcJk2YVXqLdbJd7-16" value="REQUISIÇÃO WEBSOCKET" style="edgeStyle=orthogonalEdgeStyle;rounded=0;orthogonalLoop=1;jettySize=auto;html=1;entryX=0;entryY=0.5;entryDx=0;entryDy=0;" edge="1" parent="1" source="9uag4DcJk2YVXqLdbJd7-1" target="9uag4DcJk2YVXqLdbJd7-12">
          <mxGeometry relative="1" as="geometry" />
        </mxCell>
        <mxCell id="9uag4DcJk2YVXqLdbJd7-22" value="ENVIA O PAGAMENTO" style="edgeStyle=orthogonalEdgeStyle;rounded=0;orthogonalLoop=1;jettySize=auto;html=1;entryX=0;entryY=0;entryDx=0;entryDy=0;" edge="1" parent="1" source="9uag4DcJk2YVXqLdbJd7-1" target="9uag4DcJk2YVXqLdbJd7-3">
          <mxGeometry x="0.1049" y="-20" relative="1" as="geometry">
            <Array as="points">
              <mxPoint x="130" y="313" />
            </Array>
            <mxPoint as="offset" />
          </mxGeometry>
        </mxCell>
        <mxCell id="9uag4DcJk2YVXqLdbJd7-1" value="APP&lt;div&gt;&lt;br&gt;&lt;/div&gt;" style="html=1;verticalLabelPosition=bottom;align=center;labelBackgroundColor=#ffffff;verticalAlign=top;strokeWidth=2;strokeColor=#0080F0;shadow=0;dashed=0;shape=mxgraph.ios7.icons.smartphone;rotation=0;" vertex="1" parent="1">
          <mxGeometry x="120" width="68" height="140" as="geometry" />
        </mxCell>
        <mxCell id="9uag4DcJk2YVXqLdbJd7-15" value="PEDIDOS SÃO INCLUÍDOS NA COMANDA" style="edgeStyle=orthogonalEdgeStyle;rounded=0;orthogonalLoop=1;jettySize=auto;html=1;entryX=0.5;entryY=1;entryDx=0;entryDy=0;" edge="1" parent="1">
          <mxGeometry relative="1" as="geometry">
            <mxPoint x="710" y="490" as="sourcePoint" />
            <mxPoint x="827.5" y="80" as="targetPoint" />
          </mxGeometry>
        </mxCell>
        <mxCell id="9uag4DcJk2YVXqLdbJd7-2" value="PDV" style="verticalLabelPosition=bottom;html=1;verticalAlign=top;align=center;shape=mxgraph.floorplan.laptop;" vertex="1" parent="1">
          <mxGeometry x="620" y="450" width="90" height="140" as="geometry" />
        </mxCell>
        <mxCell id="9uag4DcJk2YVXqLdbJd7-19" value="SALVA OS DADOS DA TRANSAÇÃO" style="edgeStyle=orthogonalEdgeStyle;rounded=0;orthogonalLoop=1;jettySize=auto;html=1;" edge="1" parent="1" source="9uag4DcJk2YVXqLdbJd7-3" target="9uag4DcJk2YVXqLdbJd7-4">
          <mxGeometry relative="1" as="geometry" />
        </mxCell>
        <mxCell id="9uag4DcJk2YVXqLdbJd7-20" value="BAIXA NA COMANDA" style="edgeStyle=orthogonalEdgeStyle;rounded=0;orthogonalLoop=1;jettySize=auto;html=1;entryX=0;entryY=1;entryDx=0;entryDy=0;" edge="1" parent="1">
          <mxGeometry relative="1" as="geometry">
            <mxPoint x="199" y="325" as="sourcePoint" />
            <mxPoint x="750" y="90" as="targetPoint" />
          </mxGeometry>
        </mxCell>
        <mxCell id="9uag4DcJk2YVXqLdbJd7-3" value="BACKEND" style="image;aspect=fixed;perimeter=ellipsePerimeter;html=1;align=center;shadow=0;dashed=0;fontColor=#4277BB;labelBackgroundColor=default;fontSize=12;spacingTop=3;image=img/lib/ibm/infrastructure/mobile_backend.svg;" vertex="1" parent="1">
          <mxGeometry x="120" y="300" width="90" height="90" as="geometry" />
        </mxCell>
        <mxCell id="9uag4DcJk2YVXqLdbJd7-4" value="BANCO DE DADOS" style="shape=image;html=1;verticalAlign=top;verticalLabelPosition=bottom;labelBackgroundColor=#ffffff;imageAspect=0;aspect=fixed;image=https://cdn2.iconfinder.com/data/icons/whcompare-isometric-web-hosting-servers/50/database-128.png" vertex="1" parent="1">
          <mxGeometry x="330" y="470" width="128" height="128" as="geometry" />
        </mxCell>
        <mxCell id="9uag4DcJk2YVXqLdbJd7-9" value="Garçom" style="whiteSpace=wrap;html=1;" vertex="1" parent="1">
          <mxGeometry x="990" y="490" width="120" height="60" as="geometry" />
        </mxCell>
        <mxCell id="9uag4DcJk2YVXqLdbJd7-12" value="COMANDA" style="rounded=0;whiteSpace=wrap;html=1;" vertex="1" parent="1">
          <mxGeometry x="750" y="30" width="155" height="80" as="geometry" />
        </mxCell>
        <mxCell id="9uag4DcJk2YVXqLdbJd7-14" value="INCLUI PEDIDOS DO CLIENTE" style="edgeStyle=orthogonalEdgeStyle;rounded=0;orthogonalLoop=1;jettySize=auto;html=1;entryX=1;entryY=0.5;entryDx=0;entryDy=0;entryPerimeter=0;" edge="1" parent="1" source="9uag4DcJk2YVXqLdbJd7-9" target="9uag4DcJk2YVXqLdbJd7-2">
          <mxGeometry relative="1" as="geometry" />
        </mxCell>
        <mxCell id="9uag4DcJk2YVXqLdbJd7-21" value="RETORNA O STATUS DO PAGAMENTO" style="edgeStyle=orthogonalEdgeStyle;rounded=0;orthogonalLoop=1;jettySize=auto;html=1;entryX=0.809;entryY=1.014;entryDx=0;entryDy=0;entryPerimeter=0;" edge="1" parent="1">
          <mxGeometry x="0.4451" y="-65" relative="1" as="geometry">
            <mxPoint x="185" y="318" as="sourcePoint" />
            <mxPoint x="170.01199999999994" y="141.96000000000004" as="targetPoint" />
            <Array as="points">
              <mxPoint x="185" y="142" />
            </Array>
            <mxPoint as="offset" />
          </mxGeometry>
        </mxCell>
        <mxCell id="9uag4DcJk2YVXqLdbJd7-24" value="DA BAIXA NA MESA" style="edgeStyle=orthogonalEdgeStyle;rounded=0;orthogonalLoop=1;jettySize=auto;html=1;entryX=0.478;entryY=0.036;entryDx=0;entryDy=0;entryPerimeter=0;" edge="1" parent="1">
          <mxGeometry x="0.2229" y="-5" relative="1" as="geometry">
            <mxPoint x="188" y="360" as="sourcePoint" />
            <mxPoint x="652.02" y="470.03999999999996" as="targetPoint" />
            <mxPoint as="offset" />
          </mxGeometry>
        </mxCell>
      </root>
    </mxGraphModel>
  </diagram>
</mxfile>
